<svg xmlns="http://www.w3.org/2000/svg" viewBox="0 0 195.6 42.82"><defs><style>.cls-1{fill:#212529;}.cls-2{fill:#4b5256;}</style></defs><g id="Layer_2" data-name="Layer 2"><g id="Layer_1-2" data-name="Layer 1"><path class="cls-1" d="M24.21,26.29H18.72l-1.53-4.61H7L5.45,26.29H0L9,.69h6.25ZM12.1,6.51,8.59,17h7Z"/><path class="cls-1" d="M31.19,8v3.14a4.87,4.87,0,0,1,2.12-2.61,6.56,6.56,0,0,1,3.44-.9v5.27a5.36,5.36,0,0,0-3.88.88,4.2,4.2,0,0,0-1.68,3.76v8.74H26.47V8Z"/><path class="cls-1" d="M47.06,20.81,51.52,8h5.19L49.77,26.29H44.39L37.44,8h5.2Z"/><path class="cls-1" d="M61.32,5.81a2.77,2.77,0,0,1-2-.85,2.8,2.8,0,0,1-.86-2A2.84,2.84,0,0,1,59.29.88a2.73,2.73,0,0,1,2-.88,2.78,2.78,0,0,1,2.07.88,2.84,2.84,0,0,1,.86,2.05,2.8,2.8,0,0,1-.86,2A2.83,2.83,0,0,1,61.32,5.81ZM63.7,26.29H59V8H63.7Z"/><path class="cls-1" d="M78.18,7.5a6.47,6.47,0,0,1,4.93,2,7.65,7.65,0,0,1,2,5.56V26.29H80.37V15.65a3.8,3.8,0,0,0-1-2.78,3.53,3.53,0,0,0-2.65-1A3.83,3.83,0,0,0,73.81,13a4.75,4.75,0,0,0-1.08,3.38v9.87H68V8h4.72v2.05Q74.41,7.49,78.18,7.5Z"/><path class="cls-1" d="M103,10.17V.69h4.72v25.6H103V24.13a7.07,7.07,0,0,1-5.92,2.67A8.38,8.38,0,0,1,90.72,24a9.75,9.75,0,0,1-2.6-6.87,9.74,9.74,0,0,1,2.6-6.84A8.38,8.38,0,0,1,97.05,7.5,7.07,7.07,0,0,1,103,10.17Zm-8.7,10.71a5.11,5.11,0,0,0,3.65,1.43,4.9,4.9,0,0,0,3.62-1.43A5.1,5.1,0,0,0,103,17.15a5,5,0,0,0-1.43-3.69A4.82,4.82,0,0,0,97.92,12a4.93,4.93,0,0,0-3.65,1.47,5,5,0,0,0-1.43,3.69A5.14,5.14,0,0,0,94.27,20.88Z"/><path class="cls-1" d="M142.9,23A13.51,13.51,0,0,1,124,23a13,13,0,0,1-3.84-9.47A12.81,12.81,0,0,1,124,4.06a13.41,13.41,0,0,1,18.87,0,12.77,12.77,0,0,1,3.88,9.43A12.89,12.89,0,0,1,142.9,23Zm-15.32-3.43a8.57,8.57,0,0,0,11.77,0,8.18,8.18,0,0,0,2.38-6,8.15,8.15,0,0,0-2.38-6,8.47,8.47,0,0,0-11.77,0,8.15,8.15,0,0,0-2.38,6A8.18,8.18,0,0,0,127.58,19.53Z"/><path class="cls-1" d="M160.56,8v4.53h-4.13v7.61a1.8,1.8,0,0,0,.48,1.39,2.11,2.11,0,0,0,1.38.49,19.48,19.48,0,0,0,2.27,0v4.28c-3.19.37-5.47.07-6.82-.89s-2-2.72-2-5.25V12.54h-3.18V8h3.18V4.31l4.72-1.42V8Z"/><path class="cls-1" d="M173.65,8v4.53h-4.13v7.61a1.8,1.8,0,0,0,.48,1.39,2.14,2.14,0,0,0,1.39.49,19.32,19.32,0,0,0,2.26,0v4.28q-4.78.55-6.82-.89t-2-5.25V12.54h-3.18V8h3.18V4.31l4.72-1.42V8Z"/><path class="cls-1" d="M190.33,10.17V8H195V26.29h-4.71V24.13a7.18,7.18,0,0,1-6,2.67A8.33,8.33,0,0,1,178.08,24a9.75,9.75,0,0,1-2.6-6.87,9.74,9.74,0,0,1,2.6-6.84,8.33,8.33,0,0,1,6.29-2.81A7.18,7.18,0,0,1,190.33,10.17Zm-8.71,10.71a5.3,5.3,0,0,0,7.24,0,5,5,0,0,0,1.47-3.73,4.91,4.91,0,0,0-1.47-3.69,5.19,5.19,0,0,0-7.24,0,5,5,0,0,0-1.42,3.69A5.13,5.13,0,0,0,181.62,20.88Z"/><path class="cls-2" d="M3.07,34.09a2.2,2.2,0,0,1,1.6.64,2.23,2.23,0,0,1-1.6,3.82H1.68v2.33H.57V34.09Zm0,3.42a1,1,0,0,0,.81-.34,1.28,1.28,0,0,0,0-1.69,1,1,0,0,0-.81-.34H1.68v2.37Z"/><path class="cls-2" d="M11.79,41a3,3,0,0,1-1.66-.45,2.35,2.35,0,0,1-1-1.22l1-.56a1.62,1.62,0,0,0,1.68,1.14,1.5,1.5,0,0,0,.95-.25.76.76,0,0,0,.31-.64.69.69,0,0,0-.34-.63,4.67,4.67,0,0,0-1.2-.48l-.78-.29a3.66,3.66,0,0,1-.64-.34,1.44,1.44,0,0,1-.5-.57,1.77,1.77,0,0,1-.16-.79,1.75,1.75,0,0,1,.64-1.43A2.29,2.29,0,0,1,11.64,34,2.53,2.53,0,0,1,14,35.46l-.94.54a1.45,1.45,0,0,0-1.42-1,1.27,1.27,0,0,0-.78.23.75.75,0,0,0-.29.62.68.68,0,0,0,.3.58,4.22,4.22,0,0,0,1.08.45l.55.21.51.19a1.75,1.75,0,0,1,.5.27,3.6,3.6,0,0,1,.35.34,1.21,1.21,0,0,1,.26.47,2.23,2.23,0,0,1,.08.6,1.79,1.79,0,0,1-.66,1.46A2.71,2.71,0,0,1,11.79,41Z"/><path class="cls-2" d="M23.53,34.09l-2.36,4.1v2.69H20.05V38.19l-2.36-4.1H19l1.66,3,1.64-3Z"/><path class="cls-2" d="M30.43,41a3.42,3.42,0,0,1-2.54-1,3.61,3.61,0,0,1,0-5,3.65,3.65,0,0,1,4.24-.58,3.32,3.32,0,0,1,1.22,1.19l-1,.56a2,2,0,0,0-.79-.8,2.31,2.31,0,0,0-1.16-.3,2.34,2.34,0,0,0-1.76.69,2.58,2.58,0,0,0,0,3.49,2.34,2.34,0,0,0,1.76.69,2.31,2.31,0,0,0,1.16-.3,1.94,1.94,0,0,0,.79-.79l1,.55a3.22,3.22,0,0,1-1.21,1.19A3.46,3.46,0,0,1,30.43,41Z"/><path class="cls-2" d="M41.73,34.09h1.12v6.79H41.73V37.94H38.82v2.94H37.71V34.09h1.11v2.79h2.91Z"/><path class="cls-2" d="M53.32,40a3.53,3.53,0,0,1-6-2.49,3.52,3.52,0,1,1,6,2.49Zm-4.21-.75a2.54,2.54,0,1,0-.69-1.74A2.35,2.35,0,0,0,49.11,39.23Z"/><path class="cls-2" d="M59.92,39.81h2.76v1.07H58.8V34.09h1.12Z"/><path class="cls-2" d="M72.19,40a3.56,3.56,0,1,1,1-2.49A3.4,3.4,0,0,1,72.19,40ZM68,39.23a2.46,2.46,0,0,0,3.42,0,2.54,2.54,0,0,0,0-3.48,2.44,2.44,0,0,0-3.42,0,2.54,2.54,0,0,0,0,3.48Z"/><path class="cls-2" d="M84.27,37.37v.47a3,3,0,0,1-.92,2.28,3.35,3.35,0,0,1-2.41.89,3.52,3.52,0,0,1-2.59-1,3.57,3.57,0,0,1,0-5,3.45,3.45,0,0,1,2.54-1,3.5,3.5,0,0,1,1.73.43,3.22,3.22,0,0,1,1.22,1.18l-1,.55a2.07,2.07,0,0,0-.8-.78,2.42,2.42,0,0,0-3.64,2.15,2.32,2.32,0,0,0,.7,1.73,2.44,2.44,0,0,0,1.81.69,2.39,2.39,0,0,0,1.47-.42,1.89,1.89,0,0,0,.73-1.13H80.88v-1Z"/><path class="cls-2" d="M88.73,34.09h1.11v6.79H88.73Z"/><path class="cls-2" d="M96.8,41a3,3,0,0,1-1.66-.45,2.35,2.35,0,0,1-1-1.22l1-.56a1.62,1.62,0,0,0,1.68,1.14,1.5,1.5,0,0,0,1-.25.76.76,0,0,0,.31-.64.69.69,0,0,0-.34-.63,4.67,4.67,0,0,0-1.2-.48l-.78-.29a3.34,3.34,0,0,1-.64-.34,1.44,1.44,0,0,1-.5-.57,1.77,1.77,0,0,1-.16-.79,1.75,1.75,0,0,1,.64-1.43A2.29,2.29,0,0,1,96.65,34a2.49,2.49,0,0,1,1.42.4A2.57,2.57,0,0,1,99,35.46l-.94.54a1.46,1.46,0,0,0-1.42-1,1.27,1.27,0,0,0-.78.23.75.75,0,0,0-.29.62.68.68,0,0,0,.3.58,4.22,4.22,0,0,0,1.08.45l.55.21.51.19a1.75,1.75,0,0,1,.5.27c.1.09.22.2.35.34a1.21,1.21,0,0,1,.26.47,2.23,2.23,0,0,1,.08.6,1.77,1.77,0,0,1-.67,1.46A2.66,2.66,0,0,1,96.8,41Z"/><path class="cls-2" d="M107.78,34.09v1.07h-1.91v5.72h-1.12V35.16h-1.92V34.09Z"/><path class="cls-2" d="M123.77,42.82V33.9h1v8.92Z"/><path class="cls-2" d="M145.77,40.88l-.48-1.37h-2.88l-.48,1.37h-1.21l2.46-6.79h1.34L147,40.88Zm-3-2.41h2.15l-1.07-3.07Z"/><path class="cls-2" d="M155.3,40.36a3,3,0,0,1-3.7,0,2.21,2.21,0,0,1-.72-1.73V34.09H152v4.47a1.34,1.34,0,0,0,.37,1,1.44,1.44,0,0,0,1.09.37,1.45,1.45,0,0,0,1.09-.37,1.34,1.34,0,0,0,.36-1V34.09H156v4.54A2.21,2.21,0,0,1,155.3,40.36Z"/><path class="cls-2" d="M165.15,34.09v1.07h-1.91v5.72h-1.12V35.16h-1.91V34.09Z"/><path class="cls-2" d="M173.44,34.09h1.11v6.79h-1.11V37.94h-2.91v2.94h-1.11V34.09h1.11v2.79h2.91Z"/><path class="cls-2" d="M185,40a3.56,3.56,0,1,1,1-2.49A3.38,3.38,0,0,1,185,40Zm-4.21-.75a2.46,2.46,0,0,0,3.42,0,2.51,2.51,0,0,0,0-3.48,2.44,2.44,0,0,0-3.42,0,2.54,2.54,0,0,0,0,3.48Z"/><path class="cls-2" d="M194.38,40.88l-1.44-2.47h-1.32v2.47h-1.11V34.09h2.71a2.19,2.19,0,0,1,2.19,2.19,2,2,0,0,1-.38,1.18,2.11,2.11,0,0,1-1,.78l1.54,2.64Zm-2.76-5.74v2.27h1.6a1,1,0,0,0,.76-.33,1.2,1.2,0,0,0,0-1.61,1,1,0,0,0-.76-.33Z"/></g></g></svg>