<svg xmlns="http://www.w3.org/2000/svg" viewBox="0 0 122.68 122.68"><defs><style>.cls-1{fill:#fff;}.cls-2{fill:#212529;}</style></defs><g id="Layer_2" data-name="Layer 2"><g id="Layer_1-2" data-name="Layer 1"><circle class="cls-1" cx="61.34" cy="61.34" r="61.34"/><path class="cls-2" d="M59.93,84.21H49.55l-2.91-8.72H27.31L24.4,84.21H14.08l17-48.48H42.9ZM37,46.74,30.36,66.55h13.3Z"/><path class="cls-2" d="M101.26,77.91a24.44,24.44,0,0,1-17.87,7.27A24.83,24.83,0,0,1,58.25,60,24.94,24.94,0,0,1,83.39,34.76,25.06,25.06,0,0,1,108.6,60,24.41,24.41,0,0,1,101.26,77.91Zm-29-6.51a15.09,15.09,0,0,0,11.15,4.43A15.1,15.1,0,0,0,94.54,71.4,15.49,15.49,0,0,0,99,60a15.52,15.52,0,0,0-4.5-11.43,16.06,16.06,0,0,0-22.3,0A15.48,15.48,0,0,0,67.74,60,15.45,15.45,0,0,0,72.24,71.4Z"/></g></g></svg>